<svg xmlns="http://www.w3.org/2000/svg" width="21" height="21" viewBox="0 0 21 21"><path fill="#fff" d="M10.5 2c4.7 0 8.5 3.8 8.5 8.5S15.2 19 10.5 19 2 15.2 2 10.5 5.8 2 10.5 2m0-2C4.7 0 0 4.7 0 10.5S4.7 21 10.5 21 21 16.3 21 10.5 16.3 0 10.5 0z"/><path fill="#fff" d="M11.6 6.5c.6 0 .9.4.9.8 0 .5-.5 1-1.2 1-.6 0-.9-.3-.9-.8 0-.4.4-1 1.2-1zm-1.8 8c-.5 0-.8-.3-.5-1.4l.5-2c.1-.3.1-.5 0-.5s-.7.2-1.1.4l-.2-.4c1.1-.9 2.4-1.4 3-1.4.5 0 .5.5.3 1.3l-.6 2.1c-.1.4-.1.5 0 .5s.6-.2 1-.5l.3.3c-1.1 1.2-2.3 1.6-2.7 1.6z"/></svg>